<mxfile host="app.diagrams.net" modified="2023-09-03T20:50:20.848Z" agent="Mozilla/5.0 (Windows NT 10.0; Win64; x64) AppleWebKit/537.36 (KHTML, like Gecko) Chrome/116.0.0.0 Safari/537.36" etag="4IkUrRsaUlTpiXvyaH7Q" version="21.6.9" type="github">
  <diagram id="C5RBs43oDa-KdzZeNtuy" name="Page-1">
    <mxGraphModel dx="2183" dy="1958" grid="1" gridSize="10" guides="1" tooltips="1" connect="1" arrows="1" fold="1" page="1" pageScale="1" pageWidth="827" pageHeight="1169" math="0" shadow="0">
      <root>
        <mxCell id="WIyWlLk6GJQsqaUBKTNV-0" />
        <mxCell id="WIyWlLk6GJQsqaUBKTNV-1" parent="WIyWlLk6GJQsqaUBKTNV-0" />
        <mxCell id="xfJHlxu_VXnrqttIyuLd-0" value="Curso" style="swimlane;fontStyle=1;align=center;verticalAlign=top;childLayout=stackLayout;horizontal=1;startSize=26;horizontalStack=0;resizeParent=1;resizeParentMax=0;resizeLast=0;collapsible=1;marginBottom=0;whiteSpace=wrap;html=1;" parent="WIyWlLk6GJQsqaUBKTNV-1" vertex="1">
          <mxGeometry x="540" y="-432" width="170" height="94" as="geometry" />
        </mxCell>
        <mxCell id="xfJHlxu_VXnrqttIyuLd-1" value="- nome: String&lt;br style=&quot;border-color: var(--border-color);&quot;&gt;- creditos: int" style="text;strokeColor=none;fillColor=none;align=left;verticalAlign=top;spacingLeft=4;spacingRight=4;overflow=hidden;rotatable=0;points=[[0,0.5],[1,0.5]];portConstraint=eastwest;whiteSpace=wrap;html=1;" parent="xfJHlxu_VXnrqttIyuLd-0" vertex="1">
          <mxGeometry y="26" width="170" height="34" as="geometry" />
        </mxCell>
        <mxCell id="xfJHlxu_VXnrqttIyuLd-2" value="" style="line;strokeWidth=1;fillColor=none;align=left;verticalAlign=middle;spacingTop=-1;spacingLeft=3;spacingRight=3;rotatable=0;labelPosition=right;points=[];portConstraint=eastwest;strokeColor=inherit;" parent="xfJHlxu_VXnrqttIyuLd-0" vertex="1">
          <mxGeometry y="60" width="170" height="8" as="geometry" />
        </mxCell>
        <mxCell id="xfJHlxu_VXnrqttIyuLd-3" value="+ adicionarDisciplina(): void" style="text;strokeColor=none;fillColor=none;align=left;verticalAlign=top;spacingLeft=4;spacingRight=4;overflow=hidden;rotatable=0;points=[[0,0.5],[1,0.5]];portConstraint=eastwest;whiteSpace=wrap;html=1;" parent="xfJHlxu_VXnrqttIyuLd-0" vertex="1">
          <mxGeometry y="68" width="170" height="26" as="geometry" />
        </mxCell>
        <mxCell id="xfJHlxu_VXnrqttIyuLd-4" value="Disciplina" style="swimlane;fontStyle=1;align=center;verticalAlign=top;childLayout=stackLayout;horizontal=1;startSize=26;horizontalStack=0;resizeParent=1;resizeParentMax=0;resizeLast=0;collapsible=1;marginBottom=0;whiteSpace=wrap;html=1;" parent="WIyWlLk6GJQsqaUBKTNV-1" vertex="1">
          <mxGeometry x="315" y="-432" width="160" height="140" as="geometry" />
        </mxCell>
        <mxCell id="rVDaCvNVLalm2hvkW33L-8" value="- alunosInscritos: String&lt;br&gt;- status: boolean" style="text;html=1;align=left;verticalAlign=middle;resizable=0;points=[];autosize=1;strokeColor=none;fillColor=none;" parent="xfJHlxu_VXnrqttIyuLd-4" vertex="1">
          <mxGeometry y="26" width="160" height="40" as="geometry" />
        </mxCell>
        <mxCell id="xfJHlxu_VXnrqttIyuLd-6" value="" style="line;strokeWidth=1;fillColor=none;align=left;verticalAlign=middle;spacingTop=-1;spacingLeft=3;spacingRight=3;rotatable=0;labelPosition=right;points=[];portConstraint=eastwest;strokeColor=inherit;" parent="xfJHlxu_VXnrqttIyuLd-4" vertex="1">
          <mxGeometry y="66" width="160" height="14" as="geometry" />
        </mxCell>
        <mxCell id="xfJHlxu_VXnrqttIyuLd-7" value="+ adicionarAluno(): void&lt;br&gt;+ removarAluno(): void&lt;br&gt;+ ativar(): boolean" style="text;strokeColor=none;fillColor=none;align=left;verticalAlign=top;spacingLeft=4;spacingRight=4;overflow=hidden;rotatable=0;points=[[0,0.5],[1,0.5]];portConstraint=eastwest;whiteSpace=wrap;html=1;" parent="xfJHlxu_VXnrqttIyuLd-4" vertex="1">
          <mxGeometry y="80" width="160" height="60" as="geometry" />
        </mxCell>
        <mxCell id="gCBuhMQFf0GlGuoRnyLi-1" style="edgeStyle=orthogonalEdgeStyle;rounded=0;orthogonalLoop=1;jettySize=auto;html=1;endArrow=block;endFill=0;endSize=12;entryX=0.5;entryY=1.038;entryDx=0;entryDy=0;entryPerimeter=0;" parent="WIyWlLk6GJQsqaUBKTNV-1" source="xfJHlxu_VXnrqttIyuLd-8" target="xfJHlxu_VXnrqttIyuLd-15" edge="1">
          <mxGeometry relative="1" as="geometry">
            <mxPoint x="361" y="157" as="targetPoint" />
            <Array as="points" />
          </mxGeometry>
        </mxCell>
        <mxCell id="xfJHlxu_VXnrqttIyuLd-8" value="Aluno" style="swimlane;fontStyle=1;align=center;verticalAlign=top;childLayout=stackLayout;horizontal=1;startSize=26;horizontalStack=0;resizeParent=1;resizeParentMax=0;resizeLast=0;collapsible=1;marginBottom=0;whiteSpace=wrap;html=1;" parent="WIyWlLk6GJQsqaUBKTNV-1" vertex="1">
          <mxGeometry x="300" y="-669" width="190" height="130" as="geometry" />
        </mxCell>
        <mxCell id="xfJHlxu_VXnrqttIyuLd-9" value="+ Matricula: String" style="text;strokeColor=none;fillColor=none;align=left;verticalAlign=top;spacingLeft=4;spacingRight=4;overflow=hidden;rotatable=0;points=[[0,0.5],[1,0.5]];portConstraint=eastwest;whiteSpace=wrap;html=1;" parent="xfJHlxu_VXnrqttIyuLd-8" vertex="1">
          <mxGeometry y="26" width="190" height="24" as="geometry" />
        </mxCell>
        <mxCell id="xfJHlxu_VXnrqttIyuLd-10" value="" style="line;strokeWidth=1;fillColor=none;align=left;verticalAlign=middle;spacingTop=-1;spacingLeft=3;spacingRight=3;rotatable=0;labelPosition=right;points=[];portConstraint=eastwest;strokeColor=inherit;" parent="xfJHlxu_VXnrqttIyuLd-8" vertex="1">
          <mxGeometry y="50" width="190" height="8" as="geometry" />
        </mxCell>
        <mxCell id="xfJHlxu_VXnrqttIyuLd-11" value="+ realizarMatricula(): booloean&lt;br&gt;+ cancelarMatricula(): boolean&lt;br&gt;+ obterDados(): String" style="text;strokeColor=none;fillColor=none;align=left;verticalAlign=top;spacingLeft=4;spacingRight=4;overflow=hidden;rotatable=0;points=[[0,0.5],[1,0.5]];portConstraint=eastwest;whiteSpace=wrap;html=1;" parent="xfJHlxu_VXnrqttIyuLd-8" vertex="1">
          <mxGeometry y="58" width="190" height="72" as="geometry" />
        </mxCell>
        <mxCell id="xfJHlxu_VXnrqttIyuLd-12" value="Pessoa" style="swimlane;fontStyle=1;align=center;verticalAlign=top;childLayout=stackLayout;horizontal=1;startSize=26;horizontalStack=0;resizeParent=1;resizeParentMax=0;resizeLast=0;collapsible=1;marginBottom=0;whiteSpace=wrap;html=1;" parent="WIyWlLk6GJQsqaUBKTNV-1" vertex="1">
          <mxGeometry x="290" y="-980" width="210" height="144" as="geometry" />
        </mxCell>
        <mxCell id="xfJHlxu_VXnrqttIyuLd-13" value="+ nome: String&lt;br&gt;+ codPessoa: String&lt;br&gt;+ senha: String" style="text;strokeColor=none;fillColor=none;align=left;verticalAlign=top;spacingLeft=4;spacingRight=4;overflow=hidden;rotatable=0;points=[[0,0.5],[1,0.5]];portConstraint=eastwest;whiteSpace=wrap;html=1;" parent="xfJHlxu_VXnrqttIyuLd-12" vertex="1">
          <mxGeometry y="26" width="210" height="84" as="geometry" />
        </mxCell>
        <mxCell id="xfJHlxu_VXnrqttIyuLd-14" value="" style="line;strokeWidth=1;fillColor=none;align=left;verticalAlign=middle;spacingTop=-1;spacingLeft=3;spacingRight=3;rotatable=0;labelPosition=right;points=[];portConstraint=eastwest;strokeColor=inherit;" parent="xfJHlxu_VXnrqttIyuLd-12" vertex="1">
          <mxGeometry y="110" width="210" height="8" as="geometry" />
        </mxCell>
        <mxCell id="xfJHlxu_VXnrqttIyuLd-15" value="+ method(type): type" style="text;strokeColor=none;fillColor=none;align=left;verticalAlign=top;spacingLeft=4;spacingRight=4;overflow=hidden;rotatable=0;points=[[0,0.5],[1,0.5]];portConstraint=eastwest;whiteSpace=wrap;html=1;" parent="xfJHlxu_VXnrqttIyuLd-12" vertex="1">
          <mxGeometry y="118" width="210" height="26" as="geometry" />
        </mxCell>
        <mxCell id="Lh1GMaYCp6mD0v9DGB5F-2" style="edgeStyle=orthogonalEdgeStyle;rounded=0;orthogonalLoop=1;jettySize=auto;html=1;endArrow=none;endFill=0;entryX=0.5;entryY=0;entryDx=0;entryDy=0;" parent="WIyWlLk6GJQsqaUBKTNV-1" source="xfJHlxu_VXnrqttIyuLd-17" target="xfJHlxu_VXnrqttIyuLd-22" edge="1">
          <mxGeometry relative="1" as="geometry">
            <mxPoint x="350" y="230" as="targetPoint" />
            <Array as="points">
              <mxPoint x="630" y="-770" />
              <mxPoint x="180" y="-770" />
              <mxPoint x="180" y="-650" />
              <mxPoint x="170" y="-650" />
            </Array>
          </mxGeometry>
        </mxCell>
        <mxCell id="xfJHlxu_VXnrqttIyuLd-17" value="Professor" style="swimlane;fontStyle=1;align=center;verticalAlign=top;childLayout=stackLayout;horizontal=1;startSize=26;horizontalStack=0;resizeParent=1;resizeParentMax=0;resizeLast=0;collapsible=1;marginBottom=0;whiteSpace=wrap;html=1;" parent="WIyWlLk6GJQsqaUBKTNV-1" vertex="1">
          <mxGeometry x="540" y="-669" width="160" height="60" as="geometry" />
        </mxCell>
        <mxCell id="xfJHlxu_VXnrqttIyuLd-19" value="" style="line;strokeWidth=1;fillColor=none;align=left;verticalAlign=middle;spacingTop=-1;spacingLeft=3;spacingRight=3;rotatable=0;labelPosition=right;points=[];portConstraint=eastwest;strokeColor=inherit;" parent="xfJHlxu_VXnrqttIyuLd-17" vertex="1">
          <mxGeometry y="26" width="160" height="8" as="geometry" />
        </mxCell>
        <mxCell id="xfJHlxu_VXnrqttIyuLd-20" value="+ visualizarAlunos(): void" style="text;strokeColor=none;fillColor=none;align=left;verticalAlign=top;spacingLeft=4;spacingRight=4;overflow=hidden;rotatable=0;points=[[0,0.5],[1,0.5]];portConstraint=eastwest;whiteSpace=wrap;html=1;" parent="xfJHlxu_VXnrqttIyuLd-17" vertex="1">
          <mxGeometry y="34" width="160" height="26" as="geometry" />
        </mxCell>
        <mxCell id="xfJHlxu_VXnrqttIyuLd-22" value="SecretÃ¡ria" style="swimlane;fontStyle=1;align=center;verticalAlign=top;childLayout=stackLayout;horizontal=1;startSize=26;horizontalStack=0;resizeParent=1;resizeParentMax=0;resizeLast=0;collapsible=1;marginBottom=0;whiteSpace=wrap;html=1;" parent="WIyWlLk6GJQsqaUBKTNV-1" vertex="1">
          <mxGeometry x="90" y="-669" width="180" height="92" as="geometry">
            <mxRectangle x="630" y="250" width="120" height="30" as="alternateBounds" />
          </mxGeometry>
        </mxCell>
        <mxCell id="xfJHlxu_VXnrqttIyuLd-24" value="" style="line;strokeWidth=1;fillColor=none;align=left;verticalAlign=middle;spacingTop=-1;spacingLeft=3;spacingRight=3;rotatable=0;labelPosition=right;points=[];portConstraint=eastwest;strokeColor=inherit;" parent="xfJHlxu_VXnrqttIyuLd-22" vertex="1">
          <mxGeometry y="26" width="180" height="10" as="geometry" />
        </mxCell>
        <mxCell id="xfJHlxu_VXnrqttIyuLd-25" value="+ GerarCurriculo(): void&lt;br&gt;+ acessarDadosCurso(): void&lt;br&gt;+ ativarDisciplina(): boolean" style="text;strokeColor=none;fillColor=none;align=left;verticalAlign=top;spacingLeft=4;spacingRight=4;overflow=hidden;rotatable=0;points=[[0,0.5],[1,0.5]];portConstraint=eastwest;whiteSpace=wrap;html=1;" parent="xfJHlxu_VXnrqttIyuLd-22" vertex="1">
          <mxGeometry y="36" width="180" height="56" as="geometry" />
        </mxCell>
        <mxCell id="rVDaCvNVLalm2hvkW33L-2" value="Universidade" style="swimlane;fontStyle=1;align=center;verticalAlign=top;childLayout=stackLayout;horizontal=1;startSize=26;horizontalStack=0;resizeParent=1;resizeParentMax=0;resizeLast=0;collapsible=1;marginBottom=0;whiteSpace=wrap;html=1;" parent="WIyWlLk6GJQsqaUBKTNV-1" vertex="1">
          <mxGeometry x="300" y="-210" width="190" height="170" as="geometry" />
        </mxCell>
        <mxCell id="rVDaCvNVLalm2hvkW33L-3" value="+ nome: String&lt;br style=&quot;border-color: var(--border-color);&quot;&gt;+ pessoas: HashMap&amp;lt;&amp;gt;&lt;br&gt;+ cursos: List&amp;lt;&amp;gt;&lt;br&gt;+ pessoaAtual: Pessoa" style="text;strokeColor=none;fillColor=none;align=left;verticalAlign=top;spacingLeft=4;spacingRight=4;overflow=hidden;rotatable=0;points=[[0,0.5],[1,0.5]];portConstraint=eastwest;whiteSpace=wrap;html=1;" parent="rVDaCvNVLalm2hvkW33L-2" vertex="1">
          <mxGeometry y="26" width="190" height="84" as="geometry" />
        </mxCell>
        <mxCell id="rVDaCvNVLalm2hvkW33L-4" value="" style="line;strokeWidth=1;fillColor=none;align=left;verticalAlign=middle;spacingTop=-1;spacingLeft=3;spacingRight=3;rotatable=0;labelPosition=right;points=[];portConstraint=eastwest;strokeColor=inherit;" parent="rVDaCvNVLalm2hvkW33L-2" vertex="1">
          <mxGeometry y="110" width="190" height="8" as="geometry" />
        </mxCell>
        <mxCell id="rVDaCvNVLalm2hvkW33L-5" value="+ carregarDados(): void&lt;br&gt;+ login(String, String): Pessoa" style="text;strokeColor=none;fillColor=none;align=left;verticalAlign=top;spacingLeft=4;spacingRight=4;overflow=hidden;rotatable=0;points=[[0,0.5],[1,0.5]];portConstraint=eastwest;whiteSpace=wrap;html=1;" parent="rVDaCvNVLalm2hvkW33L-2" vertex="1">
          <mxGeometry y="118" width="190" height="52" as="geometry" />
        </mxCell>
        <mxCell id="BdoGxwkjM30qAsFmZ6x7-6" value="" style="endArrow=diamondThin;endFill=0;endSize=24;html=1;rounded=0;exitX=-0.029;exitY=0.941;exitDx=0;exitDy=0;entryX=1.025;entryY=0.775;entryDx=0;entryDy=0;entryPerimeter=0;exitPerimeter=0;" edge="1" parent="WIyWlLk6GJQsqaUBKTNV-1" source="xfJHlxu_VXnrqttIyuLd-1" target="rVDaCvNVLalm2hvkW33L-8">
          <mxGeometry width="160" relative="1" as="geometry">
            <mxPoint x="480" y="-510" as="sourcePoint" />
            <mxPoint x="520" y="-580" as="targetPoint" />
            <Array as="points">
              <mxPoint x="510" y="-375" />
            </Array>
          </mxGeometry>
        </mxCell>
        <mxCell id="BdoGxwkjM30qAsFmZ6x7-7" value="" style="endArrow=diamondThin;endFill=0;endSize=24;html=1;rounded=0;entryX=0.5;entryY=0;entryDx=0;entryDy=0;exitX=0.505;exitY=1.014;exitDx=0;exitDy=0;exitPerimeter=0;" edge="1" parent="WIyWlLk6GJQsqaUBKTNV-1" source="xfJHlxu_VXnrqttIyuLd-11" target="xfJHlxu_VXnrqttIyuLd-4">
          <mxGeometry width="160" relative="1" as="geometry">
            <mxPoint x="320" y="-470" as="sourcePoint" />
            <mxPoint x="480" y="-470" as="targetPoint" />
          </mxGeometry>
        </mxCell>
        <mxCell id="BdoGxwkjM30qAsFmZ6x7-8" value="" style="endArrow=diamondThin;endFill=0;endSize=24;html=1;rounded=0;exitX=0.529;exitY=1.308;exitDx=0;exitDy=0;entryX=1;entryY=0.5;entryDx=0;entryDy=0;exitPerimeter=0;" edge="1" parent="WIyWlLk6GJQsqaUBKTNV-1" source="xfJHlxu_VXnrqttIyuLd-3" target="rVDaCvNVLalm2hvkW33L-3">
          <mxGeometry width="160" relative="1" as="geometry">
            <mxPoint x="626" y="-149" as="sourcePoint" />
            <mxPoint x="520" y="-150" as="targetPoint" />
            <Array as="points">
              <mxPoint x="630" y="-142" />
            </Array>
          </mxGeometry>
        </mxCell>
        <mxCell id="BdoGxwkjM30qAsFmZ6x7-9" value="" style="endArrow=diamondThin;endFill=0;endSize=24;html=1;rounded=0;exitX=0.538;exitY=1.077;exitDx=0;exitDy=0;entryX=0.5;entryY=0;entryDx=0;entryDy=0;exitPerimeter=0;" edge="1" parent="WIyWlLk6GJQsqaUBKTNV-1" source="xfJHlxu_VXnrqttIyuLd-20" target="xfJHlxu_VXnrqttIyuLd-0">
          <mxGeometry width="160" relative="1" as="geometry">
            <mxPoint x="673" y="-519" as="sourcePoint" />
            <mxPoint x="567" y="-520" as="targetPoint" />
            <Array as="points" />
          </mxGeometry>
        </mxCell>
        <mxCell id="BdoGxwkjM30qAsFmZ6x7-10" value="" style="endArrow=diamondThin;endFill=0;endSize=24;html=1;rounded=0;exitX=0;exitY=0.5;exitDx=0;exitDy=0;entryX=0;entryY=0.5;entryDx=0;entryDy=0;" edge="1" parent="WIyWlLk6GJQsqaUBKTNV-1" source="xfJHlxu_VXnrqttIyuLd-13" target="rVDaCvNVLalm2hvkW33L-3">
          <mxGeometry width="160" relative="1" as="geometry">
            <mxPoint x="150" y="-920" as="sourcePoint" />
            <mxPoint x="40" y="-80" as="targetPoint" />
            <Array as="points">
              <mxPoint x="40" y="-910" />
              <mxPoint x="40" y="-142" />
            </Array>
          </mxGeometry>
        </mxCell>
        <mxCell id="BdoGxwkjM30qAsFmZ6x7-12" value="" style="endArrow=diamondThin;endFill=0;endSize=24;html=1;rounded=0;entryX=0.168;entryY=0.015;entryDx=0;entryDy=0;exitX=0.485;exitY=1.001;exitDx=0;exitDy=0;exitPerimeter=0;entryPerimeter=0;" edge="1" parent="WIyWlLk6GJQsqaUBKTNV-1" target="xfJHlxu_VXnrqttIyuLd-0">
          <mxGeometry width="160" relative="1" as="geometry">
            <mxPoint x="167.5999999999999" y="-576.9439999999997" as="sourcePoint" />
            <mxPoint x="570" y="-425" as="targetPoint" />
            <Array as="points">
              <mxPoint x="168" y="-500" />
              <mxPoint x="570" y="-500" />
            </Array>
          </mxGeometry>
        </mxCell>
      </root>
    </mxGraphModel>
  </diagram>
</mxfile>
